<svg id="svg" version="1.1" xmlns="http://www.w3.org/2000/svg" xmlns:xlink="http://www.w3.org/1999/xlink" width="400" height="400" viewBox="0, 0, 400,400"><g id="svgg"><path id="path0" d="M136.109 120.198 C 130.087 121.591,132.802 119.105,83.300 168.550 C 58.385 193.436,38.000 214.004,38.000 214.256 C 38.000 214.508,37.730 214.818,37.400 214.945 C 37.070 215.071,36.800 215.373,36.800 215.616 C 36.800 215.859,36.528 216.329,36.196 216.661 C 35.864 216.993,35.695 217.430,35.820 217.632 C 35.945 217.835,35.857 218.000,35.624 218.000 C 35.391 218.000,35.228 218.135,35.262 218.300 C 35.296 218.465,35.020 219.283,34.649 220.118 C 34.278 220.952,34.073 221.795,34.194 221.990 C 34.314 222.185,34.223 222.462,33.990 222.606 C 33.758 222.750,33.672 223.197,33.800 223.600 C 33.928 224.003,33.845 224.448,33.616 224.590 C 33.143 224.883,33.042 229.709,33.500 230.167 C 33.665 230.331,33.828 230.856,33.862 231.333 C 33.973 232.882,34.421 234.482,35.101 235.754 C 35.467 236.439,35.780 237.090,35.797 237.200 C 35.843 237.492,36.836 239.251,37.354 239.957 C 37.599 240.291,45.900 248.693,55.800 258.628 C 75.570 278.468,76.518 279.238,81.820 279.772 C 82.271 279.817,82.811 279.950,83.020 280.068 C 83.375 280.267,89.681 280.199,89.900 279.994 C 89.955 279.942,90.360 279.855,90.800 279.800 C 91.240 279.745,91.690 279.655,91.800 279.600 C 91.910 279.545,92.180 279.455,92.400 279.400 C 92.620 279.345,92.890 279.255,93.000 279.200 C 93.110 279.145,93.335 279.062,93.500 279.015 C 94.137 278.836,95.457 278.296,96.800 277.665 C 97.601 277.289,106.837 268.420,118.400 256.924 C 137.982 237.456,140.348 235.345,141.979 235.895 C 142.321 236.010,151.600 245.049,162.600 255.980 C 183.079 276.332,186.145 279.065,188.039 278.652 C 188.170 278.623,188.541 278.819,188.864 279.087 C 190.164 280.166,199.800 280.596,200.967 279.627 C 201.296 279.354,201.715 279.224,201.898 279.337 C 202.081 279.450,203.574 278.914,205.216 278.146 C 208.204 276.748,246.264 239.731,245.500 238.966 C 245.360 238.826,245.703 237.987,246.263 237.100 C 246.823 236.214,247.495 234.870,247.756 234.115 C 248.018 233.360,248.357 232.710,248.511 232.671 C 248.665 232.632,258.651 242.455,270.704 254.500 C 282.756 266.545,292.823 276.400,293.075 276.400 C 293.327 276.400,293.593 276.547,293.667 276.727 C 293.833 277.135,298.648 279.466,300.000 279.792 C 304.853 280.965,316.400 279.108,316.400 277.155 C 316.400 276.960,316.703 276.800,317.074 276.800 C 318.081 276.800,366.400 228.419,366.400 227.410 C 366.400 225.647,263.477 123.553,260.000 121.866 C 256.089 119.969,248.357 119.060,245.788 120.195 C 245.355 120.387,244.685 120.577,244.299 120.617 C 240.745 120.991,238.947 122.559,217.144 144.300 C 205.562 155.848,195.889 165.229,195.648 165.148 C 195.406 165.067,185.888 155.685,174.495 144.300 C 163.103 132.915,153.576 123.600,153.324 123.600 C 153.073 123.600,152.807 123.453,152.733 123.273 C 152.592 122.928,147.963 120.641,146.597 120.242 C 144.940 119.758,138.132 119.730,136.109 120.198 M146.400 129.839 C 148.352 130.697,153.616 135.842,193.123 175.503 C 242.500 225.072,239.774 222.039,239.756 227.400 C 239.738 232.546,240.003 232.211,220.284 251.904 C 200.575 271.587,200.899 271.330,195.800 271.330 C 190.447 271.330,193.759 274.316,143.600 224.259 C 95.862 176.618,97.006 177.680,91.900 176.207 C 90.635 175.842,89.600 175.417,89.600 175.263 C 89.600 175.110,99.725 164.884,112.100 152.539 C 135.998 128.700,134.785 129.761,139.400 128.660 C 140.880 128.307,144.183 128.863,146.400 129.839 M255.600 129.654 C 257.404 130.432,354.000 226.392,354.000 227.406 C 354.000 227.632,344.505 237.287,332.900 248.861 C 309.377 272.321,310.504 271.415,304.938 271.331 C 299.507 271.248,303.040 274.474,249.716 220.905 L 201.631 172.600 222.316 151.874 C 247.492 126.648,247.936 126.352,255.600 129.654 M91.600 184.650 C 93.699 185.595,140.800 231.821,140.800 232.937 C 140.800 233.138,140.158 233.142,139.300 232.946 C 131.879 231.248,131.857 231.263,111.400 251.607 C 84.622 278.236,87.934 278.241,61.322 251.537 C 42.367 232.516,42.411 232.573,42.404 227.400 C 42.397 222.120,42.446 222.058,62.058 202.542 C 71.596 193.050,79.979 184.994,80.687 184.639 C 83.985 182.984,87.908 182.988,91.600 184.650 " stroke="none" fill="#fbfbfb" fill-rule="evenodd"></path><path id="path1" d="M140.700 119.882 C 141.195 119.978,142.005 119.978,142.500 119.882 C 142.995 119.787,142.590 119.709,141.600 119.709 C 140.610 119.709,140.205 119.787,140.700 119.882 M139.400 128.660 C 134.785 129.761,135.998 128.700,112.100 152.539 C 99.725 164.884,89.600 175.110,89.600 175.263 C 89.600 175.417,90.635 175.842,91.900 176.207 C 97.006 177.680,95.862 176.618,143.600 224.259 C 193.759 274.316,190.447 271.330,195.800 271.330 C 200.899 271.330,200.575 271.587,220.284 251.904 C 240.003 232.211,239.738 232.546,239.756 227.400 C 239.774 222.039,242.500 225.072,193.123 175.503 C 153.616 135.842,148.352 130.697,146.400 129.839 C 144.183 128.863,140.880 128.307,139.400 128.660 M248.059 128.818 C 244.864 129.468,243.113 131.036,222.316 151.874 L 201.631 172.600 249.716 220.905 C 303.040 274.474,299.507 271.248,304.938 271.331 C 310.504 271.415,309.377 272.321,332.900 248.861 C 344.505 237.287,354.000 227.632,354.000 227.406 C 354.000 226.392,257.404 130.432,255.600 129.654 C 253.361 128.690,250.340 128.355,248.059 128.818 M83.487 183.620 C 80.478 184.362,79.137 185.545,62.058 202.542 C 42.446 222.058,42.397 222.120,42.404 227.400 C 42.411 232.573,42.367 232.516,61.322 251.537 C 81.518 271.803,82.243 272.335,88.177 271.238 C 92.317 270.473,93.066 269.840,111.400 251.607 C 131.857 231.263,131.879 231.248,139.300 232.946 C 140.158 233.142,140.800 233.138,140.800 232.937 C 140.800 231.821,93.699 185.595,91.600 184.650 C 89.070 183.511,85.676 183.080,83.487 183.620 M245.894 237.703 L 245.188 239.000 245.994 238.056 C 246.680 237.252,247.046 236.394,246.700 236.403 C 246.645 236.404,246.282 236.989,245.894 237.703 M119.398 256.100 L 100.600 275.000 119.500 256.202 C 129.895 245.862,138.400 237.357,138.400 237.302 C 138.400 237.020,136.871 238.533,119.398 256.100 M85.700 280.276 C 86.085 280.376,86.715 280.376,87.100 280.276 C 87.485 280.175,87.170 280.093,86.400 280.093 C 85.630 280.093,85.315 280.175,85.700 280.276 M303.900 280.282 C 304.395 280.378,305.205 280.378,305.700 280.282 C 306.195 280.187,305.790 280.109,304.800 280.109 C 303.810 280.109,303.405 280.187,303.900 280.282 " stroke="none" fill="#74bc44" fill-rule="evenodd"></path></g></svg>